<?xml version="1.0" encoding="UTF-8" standalone="no"?>
<!DOCTYPE svg PUBLIC "-//W3C//DTD SVG 1.1//EN"
 "http://www.w3.org/Graphics/SVG/1.1/DTD/svg11.dtd">
<!-- Generated by graphviz version 2.40.1 (20161225.0304)
 -->
<!-- Title: flowchart Pages: 1 -->
<svg width="1291pt" height="1842pt"
 viewBox="0.00 0.00 1290.81 1842.00" xmlns="http://www.w3.org/2000/svg" xmlns:xlink="http://www.w3.org/1999/xlink">
<g id="graph0" class="graph" transform="scale(1 1) rotate(0) translate(4 1838)">
<title>flowchart</title>
<polygon fill="#ffffff" stroke="transparent" points="-4,4 -4,-1838 1286.8133,-1838 1286.8133,4 -4,4"/>
<!-- start -->
<g id="node1" class="node">
<title>start</title>
<polygon fill="none" stroke="#000000" points="746.5848,-1834 9.1577,-1834 9.1577,-1700 746.5848,-1700 746.5848,-1834"/>
<text text-anchor="middle" x="377.8712" y="-1798.5" font-family="Times,serif" font-size="35.00" fill="#000000">20,121 Patients with Unspecified Mental Disorder, </text>
<text text-anchor="middle" x="377.8712" y="-1756.5" font-family="Times,serif" font-size="35.00" fill="#000000">MCI, or AD identified from Fairview EHR </text>
<text text-anchor="middle" x="377.8712" y="-1714.5" font-family="Times,serif" font-size="35.00" fill="#000000">between 2004 and 2020</text>
</g>
<!-- filter1 -->
<g id="node2" class="node">
<title>filter1</title>
<polygon fill="none" stroke="#000000" points="650.1653,-1590 105.5772,-1590 105.5772,-1540 650.1653,-1540 650.1653,-1590"/>
<text text-anchor="middle" x="377.8712" y="-1554.5" font-family="Times,serif" font-size="35.00" fill="#000000">9,286 patients with AD only removed</text>
</g>
<!-- start&#45;&gt;filter1 -->
<g id="edge1" class="edge">
<title>start&#45;&gt;filter1</title>
<path fill="none" stroke="#000000" d="M377.8712,-1699.7369C377.8712,-1666.504 377.8712,-1627.7655 377.8712,-1600.3783"/>
<polygon fill="#faf0e6" stroke="#000000" points="377.8712,-1590.1114 382.3713,-1600.1114 377.8713,-1595.1114 377.8713,-1600.1114 377.8713,-1600.1114 377.8713,-1600.1114 377.8713,-1595.1114 373.3713,-1600.1115 377.8712,-1590.1114 377.8712,-1590.1114"/>
</g>
<!-- filter1_res -->
<g id="node3" class="node">
<title>filter1_res</title>
<polygon fill="none" stroke="#000000" points="492.7388,-1430 263.0037,-1430 263.0037,-1380 492.7388,-1380 492.7388,-1430"/>
<text text-anchor="middle" x="377.8712" y="-1394.5" font-family="Times,serif" font-size="35.00" fill="#000000">10,835 Remain</text>
</g>
<!-- filter1&#45;&gt;filter1_res -->
<g id="edge2" class="edge">
<title>filter1&#45;&gt;filter1_res</title>
<path fill="none" stroke="#000000" d="M377.8712,-1539.6475C377.8712,-1512.8477 377.8712,-1470.375 377.8712,-1440.3062"/>
<polygon fill="#faf0e6" stroke="#000000" points="377.8712,-1430.2339 382.3713,-1440.2338 377.8713,-1435.2339 377.8713,-1440.2339 377.8713,-1440.2339 377.8713,-1440.2339 377.8713,-1435.2339 373.3713,-1440.2339 377.8712,-1430.2339 377.8712,-1430.2339"/>
</g>
<!-- filter2 -->
<g id="node4" class="node">
<title>filter2</title>
<polygon fill="none" stroke="#000000" points="693.6503,-1270 62.0922,-1270 62.0922,-1220 693.6503,-1220 693.6503,-1270"/>
<text text-anchor="middle" x="377.8712" y="-1234.5" font-family="Times,serif" font-size="35.00" fill="#000000">332 Patients with Other Dimentias removed</text>
</g>
<!-- filter1_res&#45;&gt;filter2 -->
<g id="edge3" class="edge">
<title>filter1_res&#45;&gt;filter2</title>
<path fill="none" stroke="#000000" d="M377.8712,-1379.6475C377.8712,-1352.8477 377.8712,-1310.375 377.8712,-1280.3062"/>
<polygon fill="#faf0e6" stroke="#000000" points="377.8712,-1270.2339 382.3713,-1280.2338 377.8713,-1275.2339 377.8713,-1280.2339 377.8713,-1280.2339 377.8713,-1280.2339 377.8713,-1275.2339 373.3713,-1280.2339 377.8712,-1270.2339 377.8712,-1270.2339"/>
</g>
<!-- cohort1 -->
<g id="node5" class="node">
<title>cohort1</title>
<polygon fill="none" stroke="#000000" points="1118.6848,-1270 747.0577,-1270 747.0577,-1220 1118.6848,-1220 1118.6848,-1270"/>
<text text-anchor="middle" x="932.8713" y="-1234.5" font-family="Times,serif" font-size="35.00" fill="#000000">Cohort 1: 10,503 Remain</text>
</g>
<!-- filter2&#45;&gt;cohort1 -->
<g id="edge4" class="edge">
<title>filter2&#45;&gt;cohort1</title>
<path fill="none" stroke="#000000" d="M693.5817,-1245C707.8728,-1245 722.1638,-1245 736.4549,-1245"/>
<polygon fill="#faf0e6" stroke="#000000" points="746.861,-1245 736.8611,-1249.5001 741.861,-1245 736.861,-1245.0001 736.861,-1245.0001 736.861,-1245.0001 741.861,-1245 736.861,-1240.5001 746.861,-1245 746.861,-1245"/>
</g>
<!-- cohort_1_to_2 -->
<g id="node6" class="node">
<title>cohort_1_to_2</title>
<polygon fill="none" stroke="#000000" points="666.6493,-1110 89.0932,-1110 89.0932,-1018 666.6493,-1018 666.6493,-1110"/>
<text text-anchor="middle" x="377.8712" y="-1074.5" font-family="Times,serif" font-size="35.00" fill="#000000">407 patients with AD before </text>
<text text-anchor="middle" x="377.8712" y="-1032.5" font-family="Times,serif" font-size="35.00" fill="#000000">MCI or Unsoecified Diagnosis removed</text>
</g>
<!-- filter2&#45;&gt;cohort_1_to_2 -->
<g id="edge5" class="edge">
<title>filter2&#45;&gt;cohort_1_to_2</title>
<path fill="none" stroke="#000000" d="M377.8712,-1219.8327C377.8712,-1194.216 377.8712,-1153.6455 377.8712,-1120.3221"/>
<polygon fill="#faf0e6" stroke="#000000" points="377.8712,-1110.2376 382.3713,-1120.2375 377.8713,-1115.2376 377.8713,-1120.2376 377.8713,-1120.2376 377.8713,-1120.2376 377.8713,-1115.2376 373.3713,-1120.2376 377.8712,-1110.2376 377.8712,-1110.2376"/>
</g>
<!-- cohort2 -->
<g id="node7" class="node">
<title>cohort2</title>
<polygon fill="none" stroke="#000000" points="1093.6378,-1089 720.1047,-1089 720.1047,-1039 1093.6378,-1039 1093.6378,-1089"/>
<text text-anchor="middle" x="906.8713" y="-1053.5" font-family="Times,serif" font-size="35.00" fill="#000000">Cohort 2: 10,096 Patients</text>
</g>
<!-- cohort_1_to_2&#45;&gt;cohort2 -->
<g id="edge6" class="edge">
<title>cohort_1_to_2&#45;&gt;cohort2</title>
<path fill="none" stroke="#000000" d="M666.6515,-1064C680.8723,-1064 695.0931,-1064 709.3138,-1064"/>
<polygon fill="#faf0e6" stroke="#000000" points="719.6688,-1064 709.6688,-1068.5001 714.6688,-1064 709.6688,-1064.0001 709.6688,-1064.0001 709.6688,-1064.0001 714.6688,-1064 709.6687,-1059.5001 719.6688,-1064 719.6688,-1064"/>
</g>
<!-- cohort_2_to_3 -->
<g id="node8" class="node">
<title>cohort_2_to_3</title>
<polygon fill="none" stroke="#000000" points="662.4098,-908 93.3327,-908 93.3327,-690 662.4098,-690 662.4098,-908"/>
<text text-anchor="middle" x="377.8712" y="-872.5" font-family="Times,serif" font-size="35.00" fill="#000000">3,528 patients with only one MCI or </text>
<text text-anchor="middle" x="377.8712" y="-830.5" font-family="Times,serif" font-size="35.00" fill="#000000">Unspecified Diagnosis removed; </text>
<text text-anchor="middle" x="377.8712" y="-788.5" font-family="Times,serif" font-size="35.00" fill="#000000"> &#160;&#160;&#160;&#160;&#160;&#160;&#160;&#160;&#160;&#160;&#160;&#160;&#160;&#160;&#160;&#160;&#160;&#160;&#160;&#160;&#160;&#160;&#160;&#160;&#160;</text>
<text text-anchor="middle" x="377.8712" y="-746.5" font-family="Times,serif" font-size="35.00" fill="#000000">all patients have at least two diagnoses</text>
<text text-anchor="middle" x="377.8712" y="-704.5" font-family="Times,serif" font-size="35.00" fill="#000000"> either two MCI or one of AD and MCI</text>
</g>
<!-- cohort_1_to_2&#45;&gt;cohort_2_to_3 -->
<g id="edge7" class="edge">
<title>cohort_1_to_2&#45;&gt;cohort_2_to_3</title>
<path fill="none" stroke="#000000" d="M377.8712,-1017.8405C377.8712,-990.2398 377.8712,-953.7859 377.8712,-918.5631"/>
<polygon fill="#faf0e6" stroke="#000000" points="377.8712,-908.178 382.3713,-918.178 377.8713,-913.178 377.8713,-918.178 377.8713,-918.178 377.8713,-918.178 377.8713,-913.178 373.3713,-918.1781 377.8712,-908.178 377.8712,-908.178"/>
</g>
<!-- cohort3 -->
<g id="node9" class="node">
<title>cohort3</title>
<polygon fill="none" stroke="#000000" points="1189.7553,-824 715.9872,-824 715.9872,-774 1189.7553,-774 1189.7553,-824"/>
<text text-anchor="middle" x="952.8713" y="-788.5" font-family="Times,serif" font-size="35.00" fill="#000000">Cohort 3: 6,568 Patients Remain</text>
</g>
<!-- cohort_2_to_3&#45;&gt;cohort3 -->
<g id="edge8" class="edge">
<title>cohort_2_to_3&#45;&gt;cohort3</title>
<path fill="none" stroke="#000000" d="M662.5636,-799C676.8599,-799 691.1561,-799 705.4524,-799"/>
<polygon fill="#faf0e6" stroke="#000000" points="715.8623,-799 705.8623,-803.5001 710.8623,-799 705.8623,-799.0001 705.8623,-799.0001 705.8623,-799.0001 710.8623,-799 705.8623,-794.5001 715.8623,-799 715.8623,-799"/>
</g>
<!-- cohort_3_to_4 -->
<g id="node10" class="node">
<title>cohort_3_to_4</title>
<polygon fill="none" stroke="#000000" points="678.9533,-580 76.7892,-580 76.7892,-530 678.9533,-530 678.9533,-580"/>
<text text-anchor="middle" x="377.8712" y="-544.5" font-family="Times,serif" font-size="35.00" fill="#000000">857 patients below the age of 50 removed</text>
</g>
<!-- cohort_2_to_3&#45;&gt;cohort_3_to_4 -->
<g id="edge9" class="edge">
<title>cohort_2_to_3&#45;&gt;cohort_3_to_4</title>
<path fill="none" stroke="#000000" d="M377.8712,-689.846C377.8712,-653.9359 377.8712,-616.5246 377.8712,-590.2434"/>
<polygon fill="#faf0e6" stroke="#000000" points="377.8712,-580.0473 382.3713,-590.0473 377.8713,-585.0473 377.8713,-590.0473 377.8713,-590.0473 377.8713,-590.0473 377.8713,-585.0473 373.3713,-590.0474 377.8712,-580.0473 377.8712,-580.0473"/>
</g>
<!-- cohort4 -->
<g id="node11" class="node">
<title>cohort4</title>
<polygon fill="none" stroke="#000000" points="1205.7553,-580 731.9872,-580 731.9872,-530 1205.7553,-530 1205.7553,-580"/>
<text text-anchor="middle" x="968.8713" y="-544.5" font-family="Times,serif" font-size="35.00" fill="#000000">Cohort 4: 5,711 Patients Remain</text>
</g>
<!-- cohort_3_to_4&#45;&gt;cohort4 -->
<g id="edge10" class="edge">
<title>cohort_3_to_4&#45;&gt;cohort4</title>
<path fill="none" stroke="#000000" d="M679.1427,-555C693.2587,-555 707.3746,-555 721.4906,-555"/>
<polygon fill="#faf0e6" stroke="#000000" points="731.7692,-555 721.7692,-559.5001 726.7692,-555 721.7692,-555.0001 721.7692,-555.0001 721.7692,-555.0001 726.7692,-555 721.7692,-550.5001 731.7692,-555 731.7692,-555"/>
</g>
<!-- cohort_4_to_5 -->
<g id="node12" class="node">
<title>cohort_4_to_5</title>
<polygon fill="none" stroke="#000000" points="755.6138,-420 .1287,-420 .1287,-244 755.6138,-244 755.6138,-420"/>
<text text-anchor="middle" x="377.8712" y="-384.5" font-family="Times,serif" font-size="35.00" fill="#000000">2,904 of non&#45;progressing patients with MCI diangsis</text>
<text text-anchor="middle" x="377.8712" y="-342.5" font-family="Times,serif" font-size="35.00" fill="#000000"> spanning less than 50 days removed; </text>
<text text-anchor="middle" x="377.8712" y="-300.5" font-family="Times,serif" font-size="35.00" fill="#000000"> &#160;&#160;&#160;&#160;&#160;&#160;&#160;&#160;&#160;&#160;&#160;&#160;&#160;&#160;&#160;&#160;&#160;&#160;&#160;&#160;&#160;&#160;&#160;&#160;&#160;</text>
<text text-anchor="middle" x="377.8712" y="-258.5" font-family="Times,serif" font-size="35.00" fill="#000000">criteria did not apply to those who progressed to AD</text>
</g>
<!-- cohort_3_to_4&#45;&gt;cohort_4_to_5 -->
<g id="edge11" class="edge">
<title>cohort_3_to_4&#45;&gt;cohort_4_to_5</title>
<path fill="none" stroke="#000000" d="M377.8712,-529.8525C377.8712,-505.489 377.8712,-466.9523 377.8712,-430.3363"/>
<polygon fill="#faf0e6" stroke="#000000" points="377.8712,-420.073 382.3713,-430.0729 377.8713,-425.073 377.8713,-430.073 377.8713,-430.073 377.8713,-430.073 377.8713,-425.073 373.3713,-430.073 377.8712,-420.073 377.8712,-420.073"/>
</g>
<!-- cohort5 -->
<g id="node13" class="node">
<title>cohort5</title>
<polygon fill="none" stroke="#000000" points="1282.7553,-357 808.9872,-357 808.9872,-307 1282.7553,-307 1282.7553,-357"/>
<text text-anchor="middle" x="1045.8713" y="-321.5" font-family="Times,serif" font-size="35.00" fill="#000000">Cohort 5: 2,807 Patients Remain</text>
</g>
<!-- cohort_4_to_5&#45;&gt;cohort5 -->
<g id="edge12" class="edge">
<title>cohort_4_to_5&#45;&gt;cohort5</title>
<path fill="none" stroke="#000000" d="M755.9045,-332C770.108,-332 784.3115,-332 798.515,-332"/>
<polygon fill="#faf0e6" stroke="#000000" points="808.8574,-332 798.8574,-336.5001 803.8574,-332 798.8574,-332.0001 798.8574,-332.0001 798.8574,-332.0001 803.8574,-332 798.8573,-327.5001 808.8574,-332 808.8574,-332"/>
</g>
<!-- cohort_5_to_6 -->
<g id="node14" class="node">
<title>cohort_5_to_6</title>
<polygon fill="none" stroke="#000000" points="716.7458,-134 38.9967,-134 38.9967,0 716.7458,0 716.7458,-134"/>
<text text-anchor="middle" x="377.8712" y="-98.5" font-family="Times,serif" font-size="35.00" fill="#000000">372 patients removed when criteria </text>
<text text-anchor="middle" x="377.8712" y="-56.5" font-family="Times,serif" font-size="35.00" fill="#000000">of at least two MCI diagnoses over </text>
<text text-anchor="middle" x="377.8712" y="-14.5" font-family="Times,serif" font-size="35.00" fill="#000000">the span of at least 50 days applied to everyone</text>
</g>
<!-- cohort_4_to_5&#45;&gt;cohort_5_to_6 -->
<g id="edge13" class="edge">
<title>cohort_4_to_5&#45;&gt;cohort_5_to_6</title>
<path fill="none" stroke="#000000" d="M377.8712,-243.7588C377.8712,-211.6993 377.8712,-175.7343 377.8712,-144.6569"/>
<polygon fill="#faf0e6" stroke="#000000" points="377.8712,-134.3177 382.3713,-144.3177 377.8713,-139.3177 377.8713,-144.3177 377.8713,-144.3177 377.8713,-144.3177 377.8713,-139.3177 373.3713,-144.3178 377.8712,-134.3177 377.8712,-134.3177"/>
</g>
<!-- cohort6 -->
<g id="node15" class="node">
<title>cohort6</title>
<polygon fill="none" stroke="#000000" points="1231.1088,-92 770.6337,-92 770.6337,-42 1231.1088,-42 1231.1088,-92"/>
<text text-anchor="middle" x="1000.8713" y="-56.5" font-family="Times,serif" font-size="35.00" fill="#000000">Cohort 6: 2,435 patients remain</text>
</g>
<!-- cohort_5_to_6&#45;&gt;cohort6 -->
<g id="edge14" class="edge">
<title>cohort_5_to_6&#45;&gt;cohort6</title>
<path fill="none" stroke="#000000" d="M716.7492,-67C731.3275,-67 745.9059,-67 760.4843,-67"/>
<polygon fill="#faf0e6" stroke="#000000" points="770.577,-67 760.577,-71.5001 765.577,-67 760.577,-67.0001 760.577,-67.0001 760.577,-67.0001 765.577,-67 760.5769,-62.5001 770.577,-67 770.577,-67"/>
</g>
</g>
</svg>

