<?xml version="1.0" encoding="UTF-8" standalone="no"?>
<!DOCTYPE svg PUBLIC "-//W3C//DTD SVG 1.1//EN"
 "http://www.w3.org/Graphics/SVG/1.1/DTD/svg11.dtd">
<!-- Generated by graphviz version 2.40.1 (20161225.0304)
 -->
<!-- Title: flowchart Pages: 1 -->
<svg width="1314pt" height="1842pt"
 viewBox="0.00 0.00 1314.48 1842.00" xmlns="http://www.w3.org/2000/svg" xmlns:xlink="http://www.w3.org/1999/xlink">
<g id="graph0" class="graph" transform="scale(1 1) rotate(0) translate(4 1838)">
<title>flowchart</title>
<polygon fill="#ffffff" stroke="transparent" points="-4,4 -4,-1838 1310.484,-1838 1310.484,4 -4,4"/>
<!-- start -->
<g id="node1" class="node">
<title>start</title>
<polygon fill="none" stroke="#000000" points="755.3348,-1834 17.9077,-1834 17.9077,-1700 755.3348,-1700 755.3348,-1834"/>
<text text-anchor="middle" x="386.6212" y="-1798.5" font-family="Times,serif" font-size="35.00" fill="#000000">20,121 Patients with Unspecified Mental Disorder, </text>
<text text-anchor="middle" x="386.6212" y="-1756.5" font-family="Times,serif" font-size="35.00" fill="#000000">MCI, or AD identified from Fairview EHR </text>
<text text-anchor="middle" x="386.6212" y="-1714.5" font-family="Times,serif" font-size="35.00" fill="#000000">between 2004 and 2020</text>
</g>
<!-- filter1 -->
<g id="node2" class="node">
<title>filter1</title>
<polygon fill="none" stroke="#000000" points="658.9153,-1590 114.3272,-1590 114.3272,-1540 658.9153,-1540 658.9153,-1590"/>
<text text-anchor="middle" x="386.6212" y="-1554.5" font-family="Times,serif" font-size="35.00" fill="#000000">9,286 patients with AD only removed</text>
</g>
<!-- start&#45;&gt;filter1 -->
<g id="edge1" class="edge">
<title>start&#45;&gt;filter1</title>
<path fill="none" stroke="#000000" d="M386.6212,-1699.7369C386.6212,-1666.504 386.6212,-1627.7655 386.6212,-1600.3783"/>
<polygon fill="#faf0e6" stroke="#000000" points="386.6212,-1590.1114 391.1213,-1600.1114 386.6213,-1595.1114 386.6213,-1600.1114 386.6213,-1600.1114 386.6213,-1600.1114 386.6213,-1595.1114 382.1213,-1600.1115 386.6212,-1590.1114 386.6212,-1590.1114"/>
</g>
<!-- filter1_res -->
<g id="node3" class="node">
<title>filter1_res</title>
<polygon fill="none" stroke="#000000" points="501.4888,-1430 271.7537,-1430 271.7537,-1380 501.4888,-1380 501.4888,-1430"/>
<text text-anchor="middle" x="386.6212" y="-1394.5" font-family="Times,serif" font-size="35.00" fill="#000000">10,835 Remain</text>
</g>
<!-- filter1&#45;&gt;filter1_res -->
<g id="edge2" class="edge">
<title>filter1&#45;&gt;filter1_res</title>
<path fill="none" stroke="#000000" d="M386.6212,-1539.6475C386.6212,-1512.8477 386.6212,-1470.375 386.6212,-1440.3062"/>
<polygon fill="#faf0e6" stroke="#000000" points="386.6212,-1430.2339 391.1213,-1440.2338 386.6213,-1435.2339 386.6213,-1440.2339 386.6213,-1440.2339 386.6213,-1440.2339 386.6213,-1435.2339 382.1213,-1440.2339 386.6212,-1430.2339 386.6212,-1430.2339"/>
</g>
<!-- filter2 -->
<g id="node4" class="node">
<title>filter2</title>
<polygon fill="none" stroke="#000000" points="695.2888,-1270 77.9537,-1270 77.9537,-1220 695.2888,-1220 695.2888,-1270"/>
<text text-anchor="middle" x="386.6212" y="-1234.5" font-family="Times,serif" font-size="35.00" fill="#000000">332 Patients with Other Dimentia removed</text>
</g>
<!-- filter1_res&#45;&gt;filter2 -->
<g id="edge3" class="edge">
<title>filter1_res&#45;&gt;filter2</title>
<path fill="none" stroke="#000000" d="M386.6212,-1379.6475C386.6212,-1352.8477 386.6212,-1310.375 386.6212,-1280.3062"/>
<polygon fill="#faf0e6" stroke="#000000" points="386.6212,-1270.2339 391.1213,-1280.2338 386.6213,-1275.2339 386.6213,-1280.2339 386.6213,-1280.2339 386.6213,-1280.2339 386.6213,-1275.2339 382.1213,-1280.2339 386.6212,-1270.2339 386.6212,-1270.2339"/>
</g>
<!-- cohort1 -->
<g id="node5" class="node">
<title>cohort1</title>
<polygon fill="none" stroke="#000000" points="1120.4348,-1270 748.8077,-1270 748.8077,-1220 1120.4348,-1220 1120.4348,-1270"/>
<text text-anchor="middle" x="934.6213" y="-1234.5" font-family="Times,serif" font-size="35.00" fill="#000000">Cohort 1: 10,503 Remain</text>
</g>
<!-- filter2&#45;&gt;cohort1 -->
<g id="edge4" class="edge">
<title>filter2&#45;&gt;cohort1</title>
<path fill="none" stroke="#000000" d="M695.4064,-1245C709.693,-1245 723.9796,-1245 738.2662,-1245"/>
<polygon fill="#faf0e6" stroke="#000000" points="748.6691,-1245 738.6691,-1249.5001 743.6691,-1245 738.6691,-1245.0001 738.6691,-1245.0001 738.6691,-1245.0001 743.6691,-1245 738.669,-1240.5001 748.6691,-1245 748.6691,-1245"/>
</g>
<!-- cohort_1_to_2 -->
<g id="node6" class="node">
<title>cohort_1_to_2</title>
<polygon fill="none" stroke="#000000" points="675.3993,-1110 97.8432,-1110 97.8432,-1018 675.3993,-1018 675.3993,-1110"/>
<text text-anchor="middle" x="386.6212" y="-1074.5" font-family="Times,serif" font-size="35.00" fill="#000000">407 patients with AD before </text>
<text text-anchor="middle" x="386.6212" y="-1032.5" font-family="Times,serif" font-size="35.00" fill="#000000">MCI or Unspecified Diagnosis removed</text>
</g>
<!-- filter2&#45;&gt;cohort_1_to_2 -->
<g id="edge5" class="edge">
<title>filter2&#45;&gt;cohort_1_to_2</title>
<path fill="none" stroke="#000000" d="M386.6212,-1219.8327C386.6212,-1194.216 386.6212,-1153.6455 386.6212,-1120.3221"/>
<polygon fill="#faf0e6" stroke="#000000" points="386.6212,-1110.2376 391.1213,-1120.2375 386.6213,-1115.2376 386.6213,-1120.2376 386.6213,-1120.2376 386.6213,-1120.2376 386.6213,-1115.2376 382.1213,-1120.2376 386.6212,-1110.2376 386.6212,-1110.2376"/>
</g>
<!-- cohort2 -->
<g id="node7" class="node">
<title>cohort2</title>
<polygon fill="none" stroke="#000000" points="1102.3878,-1089 728.8547,-1089 728.8547,-1039 1102.3878,-1039 1102.3878,-1089"/>
<text text-anchor="middle" x="915.6213" y="-1053.5" font-family="Times,serif" font-size="35.00" fill="#000000">Cohort 2: 10,096 Patients</text>
</g>
<!-- cohort_1_to_2&#45;&gt;cohort2 -->
<g id="edge6" class="edge">
<title>cohort_1_to_2&#45;&gt;cohort2</title>
<path fill="none" stroke="#000000" d="M675.4015,-1064C689.6223,-1064 703.8431,-1064 718.0638,-1064"/>
<polygon fill="#faf0e6" stroke="#000000" points="728.4188,-1064 718.4188,-1068.5001 723.4188,-1064 718.4188,-1064.0001 718.4188,-1064.0001 718.4188,-1064.0001 723.4188,-1064 718.4187,-1059.5001 728.4188,-1064 728.4188,-1064"/>
</g>
<!-- cohort_2_to_3 -->
<g id="node8" class="node">
<title>cohort_2_to_3</title>
<polygon fill="none" stroke="#000000" points="671.1598,-908 102.0827,-908 102.0827,-690 671.1598,-690 671.1598,-908"/>
<text text-anchor="middle" x="386.6212" y="-872.5" font-family="Times,serif" font-size="35.00" fill="#000000">3,528 patients with only one MCI or </text>
<text text-anchor="middle" x="386.6212" y="-830.5" font-family="Times,serif" font-size="35.00" fill="#000000">Unspecified Diagnosis removed; </text>
<text text-anchor="middle" x="386.6212" y="-788.5" font-family="Times,serif" font-size="35.00" fill="#000000"> &#160;&#160;&#160;&#160;&#160;&#160;&#160;&#160;&#160;&#160;&#160;&#160;&#160;&#160;&#160;&#160;&#160;&#160;&#160;&#160;&#160;</text>
<text text-anchor="middle" x="386.6212" y="-746.5" font-family="Times,serif" font-size="35.00" fill="#000000">all patients have at least two diagnoses</text>
<text text-anchor="middle" x="386.6212" y="-704.5" font-family="Times,serif" font-size="35.00" fill="#000000"> either two MCI or one of AD and MCI</text>
</g>
<!-- cohort_1_to_2&#45;&gt;cohort_2_to_3 -->
<g id="edge7" class="edge">
<title>cohort_1_to_2&#45;&gt;cohort_2_to_3</title>
<path fill="none" stroke="#000000" d="M386.6212,-1017.8405C386.6212,-990.2398 386.6212,-953.7859 386.6212,-918.5631"/>
<polygon fill="#faf0e6" stroke="#000000" points="386.6212,-908.178 391.1213,-918.178 386.6213,-913.178 386.6213,-918.178 386.6213,-918.178 386.6213,-918.178 386.6213,-913.178 382.1213,-918.1781 386.6212,-908.178 386.6212,-908.178"/>
</g>
<!-- cohort3 -->
<g id="node9" class="node">
<title>cohort3</title>
<polygon fill="none" stroke="#000000" points="1198.5053,-824 724.7372,-824 724.7372,-774 1198.5053,-774 1198.5053,-824"/>
<text text-anchor="middle" x="961.6213" y="-788.5" font-family="Times,serif" font-size="35.00" fill="#000000">Cohort 3: 6,568 Patients Remain</text>
</g>
<!-- cohort_2_to_3&#45;&gt;cohort3 -->
<g id="edge8" class="edge">
<title>cohort_2_to_3&#45;&gt;cohort3</title>
<path fill="none" stroke="#000000" d="M671.3136,-799C685.6099,-799 699.9061,-799 714.2024,-799"/>
<polygon fill="#faf0e6" stroke="#000000" points="724.6123,-799 714.6123,-803.5001 719.6123,-799 714.6123,-799.0001 714.6123,-799.0001 714.6123,-799.0001 719.6123,-799 714.6123,-794.5001 724.6123,-799 724.6123,-799"/>
</g>
<!-- cohort_3_to_4 -->
<g id="node10" class="node">
<title>cohort_3_to_4</title>
<polygon fill="none" stroke="#000000" points="687.7033,-580 85.5392,-580 85.5392,-530 687.7033,-530 687.7033,-580"/>
<text text-anchor="middle" x="386.6212" y="-544.5" font-family="Times,serif" font-size="35.00" fill="#000000">857 patients below the age of 50 removed</text>
</g>
<!-- cohort_2_to_3&#45;&gt;cohort_3_to_4 -->
<g id="edge9" class="edge">
<title>cohort_2_to_3&#45;&gt;cohort_3_to_4</title>
<path fill="none" stroke="#000000" d="M386.6212,-689.846C386.6212,-653.9359 386.6212,-616.5246 386.6212,-590.2434"/>
<polygon fill="#faf0e6" stroke="#000000" points="386.6212,-580.0473 391.1213,-590.0473 386.6213,-585.0473 386.6213,-590.0473 386.6213,-590.0473 386.6213,-590.0473 386.6213,-585.0473 382.1213,-590.0474 386.6212,-580.0473 386.6212,-580.0473"/>
</g>
<!-- cohort4 -->
<g id="node11" class="node">
<title>cohort4</title>
<polygon fill="none" stroke="#000000" points="1222.2719,-580 740.9706,-580 740.9706,-530 1222.2719,-530 1222.2719,-580"/>
<text text-anchor="middle" x="981.6213" y="-544.5" font-family="Times,serif" font-size="35.00" fill="#000000">Cohort A: 5,711 Patients Remain</text>
</g>
<!-- cohort_3_to_4&#45;&gt;cohort4 -->
<g id="edge10" class="edge">
<title>cohort_3_to_4&#45;&gt;cohort4</title>
<path fill="none" stroke="#000000" d="M687.8981,-555C702.1317,-555 716.3654,-555 730.599,-555"/>
<polygon fill="#faf0e6" stroke="#000000" points="740.9633,-555 730.9634,-559.5001 735.9633,-555 730.9633,-555.0001 730.9633,-555.0001 730.9633,-555.0001 735.9633,-555 730.9633,-550.5001 740.9633,-555 740.9633,-555"/>
</g>
<!-- cohort_4_to_5 -->
<g id="node12" class="node">
<title>cohort_4_to_5</title>
<polygon fill="none" stroke="#000000" points="773.3638,-420 -.1213,-420 -.1213,-244 773.3638,-244 773.3638,-420"/>
<text text-anchor="middle" x="386.6212" y="-384.5" font-family="Times,serif" font-size="35.00" fill="#000000">2,904 of non&#45;progressing patients with MCI diagnosis</text>
<text text-anchor="middle" x="386.6212" y="-342.5" font-family="Times,serif" font-size="35.00" fill="#000000"> spanning less than 50 days removed; </text>
<text text-anchor="middle" x="386.6212" y="-300.5" font-family="Times,serif" font-size="35.00" fill="#000000"> &#160;&#160;&#160;&#160;&#160;&#160;&#160;&#160;&#160;&#160;&#160;&#160;&#160;&#160;&#160;&#160;&#160;&#160;&#160;&#160;&#160;</text>
<text text-anchor="middle" x="386.6212" y="-258.5" font-family="Times,serif" font-size="35.00" fill="#000000">criteria did not apply to those who progressed to AD</text>
</g>
<!-- cohort_3_to_4&#45;&gt;cohort_4_to_5 -->
<g id="edge11" class="edge">
<title>cohort_3_to_4&#45;&gt;cohort_4_to_5</title>
<path fill="none" stroke="#000000" d="M386.6212,-529.8525C386.6212,-505.489 386.6212,-466.9523 386.6212,-430.3363"/>
<polygon fill="#faf0e6" stroke="#000000" points="386.6212,-420.073 391.1213,-430.0729 386.6213,-425.073 386.6213,-430.073 386.6213,-430.073 386.6213,-430.073 386.6213,-425.073 382.1213,-430.073 386.6212,-420.073 386.6212,-420.073"/>
</g>
<!-- cohort5 -->
<g id="node13" class="node">
<title>cohort5</title>
<polygon fill="none" stroke="#000000" points="1306.3468,-357 826.8957,-357 826.8957,-307 1306.3468,-307 1306.3468,-357"/>
<text text-anchor="middle" x="1066.6213" y="-321.5" font-family="Times,serif" font-size="35.00" fill="#000000">Cohort B: 2,807 Patients Remain</text>
</g>
<!-- cohort_4_to_5&#45;&gt;cohort5 -->
<g id="edge12" class="edge">
<title>cohort_4_to_5&#45;&gt;cohort5</title>
<path fill="none" stroke="#000000" d="M773.4377,-332C787.7219,-332 802.0062,-332 816.2905,-332"/>
<polygon fill="#faf0e6" stroke="#000000" points="826.6917,-332 816.6918,-336.5001 821.6917,-332 816.6917,-332.0001 816.6917,-332.0001 816.6917,-332.0001 821.6917,-332 816.6917,-327.5001 826.6917,-332 826.6917,-332"/>
</g>
<!-- cohort_5_to_6 -->
<g id="node14" class="node">
<title>cohort_5_to_6</title>
<polygon fill="none" stroke="#000000" points="725.4958,-134 47.7467,-134 47.7467,0 725.4958,0 725.4958,-134"/>
<text text-anchor="middle" x="386.6212" y="-98.5" font-family="Times,serif" font-size="35.00" fill="#000000">372 patients removed when criteria </text>
<text text-anchor="middle" x="386.6212" y="-56.5" font-family="Times,serif" font-size="35.00" fill="#000000">of at least two MCI diagnoses over </text>
<text text-anchor="middle" x="386.6212" y="-14.5" font-family="Times,serif" font-size="35.00" fill="#000000">the span of at least 50 days applied to everyone</text>
</g>
<!-- cohort_4_to_5&#45;&gt;cohort_5_to_6 -->
<g id="edge13" class="edge">
<title>cohort_4_to_5&#45;&gt;cohort_5_to_6</title>
<path fill="none" stroke="#000000" d="M386.6212,-243.7588C386.6212,-211.6993 386.6212,-175.7343 386.6212,-144.6569"/>
<polygon fill="#faf0e6" stroke="#000000" points="386.6212,-134.3177 391.1213,-144.3177 386.6213,-139.3177 386.6213,-144.3177 386.6213,-144.3177 386.6213,-144.3177 386.6213,-139.3177 382.1213,-144.3178 386.6212,-134.3177 386.6212,-134.3177"/>
</g>
<!-- cohort6 -->
<g id="node15" class="node">
<title>cohort6</title>
<polygon fill="none" stroke="#000000" points="1244.7003,-92 778.5422,-92 778.5422,-42 1244.7003,-42 1244.7003,-92"/>
<text text-anchor="middle" x="1011.6213" y="-56.5" font-family="Times,serif" font-size="35.00" fill="#000000">Cohort C: 2,435 patients remain</text>
</g>
<!-- cohort_5_to_6&#45;&gt;cohort6 -->
<g id="edge14" class="edge">
<title>cohort_5_to_6&#45;&gt;cohort6</title>
<path fill="none" stroke="#000000" d="M725.6715,-67C739.8281,-67 753.9846,-67 768.1412,-67"/>
<polygon fill="#faf0e6" stroke="#000000" points="778.4494,-67 768.4494,-71.5001 773.4494,-67 768.4494,-67.0001 768.4494,-67.0001 768.4494,-67.0001 773.4494,-67 768.4493,-62.5001 778.4494,-67 778.4494,-67"/>
</g>
</g>
</svg>

